<svg width="52" height="51" viewBox="0 0 52 51" fill="none" xmlns="http://www.w3.org/2000/svg">
<path d="M47.9694 28.7882C47.1497 28.7882 46.3244 28.8388 45.5563 29.148C44.4673 29.5809 43.619 30.2442 42.9312 31.1774C41.7275 32.8132 41.6702 35.0618 42.5873 36.827C42.8395 37.3161 43.2006 37.7658 43.5961 38.1537C43.6935 38.2492 43.7909 38.3448 43.8884 38.4404C43.917 38.4685 43.9457 38.5022 43.9801 38.5303C44.2208 38.7889 43.8253 38.2998 43.9113 38.446C43.9858 38.5697 44.0603 38.6933 44.1177 38.8282C44.0603 38.6933 44.003 38.5584 43.9457 38.4235C44.0259 38.6146 44.0775 38.8114 44.1062 39.0194C44.0833 38.8676 44.0661 38.7214 44.0431 38.5697C44.0603 38.7495 44.0603 38.9238 44.0431 39.1037C44.0661 38.9519 44.0833 38.8058 44.1062 38.654C44.0775 38.862 44.0259 39.0587 43.9457 39.2499C44.003 39.1149 44.0603 38.98 44.1177 38.8451C44.0775 38.9407 44.0317 39.0362 43.9744 39.1262C43.9629 39.1487 43.8827 39.2442 43.8884 39.2611C43.8884 39.2386 44.1864 38.9294 44.0087 39.1093C43.9629 39.1543 43.9228 39.2049 43.8769 39.2499C43.8024 39.3286 43.7222 39.4016 43.6476 39.4747C43.3152 39.8008 42.9828 40.1268 42.6503 40.4529C41.8765 41.2118 41.097 41.9763 40.3232 42.7352C40.2201 42.8364 40.1226 42.9319 40.0195 43.0331C39.9965 43.0556 39.9736 43.0781 39.9507 43.1006C39.9106 43.1399 39.8704 43.1737 39.8246 43.2074C39.6756 43.3367 40.1799 42.9825 39.9392 43.1118C39.8188 43.1737 39.7099 43.2411 39.5838 43.2917C39.7214 43.2355 39.859 43.1793 39.9965 43.1231C39.8017 43.2018 39.601 43.2524 39.389 43.2805C39.5437 43.258 39.6927 43.2411 39.8475 43.2186C39.6641 43.2355 39.4864 43.2355 39.303 43.2186C39.4577 43.2411 39.6068 43.258 39.7615 43.2805C39.5495 43.2524 39.3488 43.2018 39.154 43.1231C39.2915 43.1793 39.4291 43.2355 39.5667 43.2917C39.4406 43.2411 39.3316 43.1737 39.2113 43.1118C39.0909 43.05 39.068 42.9319 39.3603 43.2355C39.3259 43.1962 39.2743 43.1624 39.2342 43.1287C39.131 43.0331 39.0336 42.9376 38.9362 42.8364C38.5808 42.4935 38.1853 42.173 37.7612 41.9201C36.8785 41.3973 35.7894 41.1162 34.7577 41.1668C32.7402 41.2624 30.7455 42.4035 29.8972 44.2418C29.582 44.922 29.4157 45.5516 29.347 46.2992C29.3126 46.659 29.3527 47.0188 29.3126 47.3786C29.3355 47.2268 29.3527 47.0806 29.3756 46.9288C29.3412 47.1312 29.2896 47.3223 29.2094 47.5079C29.2667 47.3729 29.324 47.238 29.3814 47.1031C29.3298 47.2155 29.2724 47.328 29.2037 47.4292C29.0948 47.5922 29.0031 47.5697 29.2954 47.3223C29.2495 47.3617 29.2094 47.4123 29.1693 47.4573C29.1521 47.4741 29.0374 47.5866 29.0317 47.5809C29.0203 47.5753 29.4444 47.3111 29.1693 47.4741C29.0489 47.5472 28.9343 47.6147 28.8082 47.6709C28.9457 47.6147 29.0833 47.5584 29.2209 47.5022C29.026 47.5809 28.8368 47.6315 28.6305 47.6653C28.7852 47.6428 28.9343 47.6259 29.089 47.6034C28.3898 47.6877 27.6504 47.6259 26.9511 47.6259C25.9137 47.6259 24.8705 47.6259 23.833 47.6259C23.5292 47.6259 23.214 47.6428 22.9102 47.6034C23.065 47.6259 23.214 47.6428 23.3688 47.6653C23.1624 47.6315 22.9675 47.5809 22.7784 47.5022C22.916 47.5584 23.0535 47.6147 23.1911 47.6709C23.0764 47.6203 22.9618 47.5641 22.8586 47.4966C22.6924 47.3898 22.7153 47.2999 22.9675 47.5866C22.9274 47.5416 22.8758 47.5022 22.83 47.4629C22.8128 47.446 22.6981 47.3336 22.7039 47.328C22.7096 47.3167 22.979 47.7327 22.8128 47.4629C22.7383 47.3448 22.6695 47.2324 22.6122 47.1087C22.6695 47.2436 22.7268 47.3786 22.7841 47.5135C22.7039 47.3223 22.6523 47.1368 22.6179 46.9345C22.6408 47.0862 22.658 47.2324 22.6809 47.3842C22.6466 47.0862 22.6695 46.7827 22.6523 46.4791C22.6294 45.9451 22.5491 45.3885 22.3657 44.8882C21.9587 43.7808 21.2767 42.9095 20.3252 42.2068C18.6515 40.9757 16.3703 40.8857 14.5247 41.7683C14.0031 42.0156 13.5274 42.3867 13.1147 42.7858C13.0172 42.8814 12.9255 42.9769 12.8281 43.0669C12.7937 43.095 12.765 43.1287 12.7306 43.1568C12.4956 43.3592 12.8453 43.1062 12.851 43.0669C12.8281 43.1456 12.4899 43.2636 12.4269 43.2917C12.5644 43.2355 12.702 43.1793 12.8396 43.1231C12.6447 43.2018 12.4441 43.2524 12.232 43.2805C12.3867 43.258 12.5358 43.2411 12.6905 43.2186C12.5071 43.2355 12.3294 43.2355 12.146 43.2186C12.3008 43.2411 12.4498 43.258 12.6046 43.2805C12.3925 43.2524 12.1919 43.2018 11.997 43.1231C12.1346 43.1793 12.2721 43.2355 12.4097 43.2917C12.3122 43.2524 12.2148 43.2074 12.1231 43.1512C12.1002 43.1399 12.0027 43.0612 11.9855 43.0669C12.0085 43.0669 12.3237 43.3592 12.1403 43.1849C12.0944 43.1399 12.0428 43.1006 11.997 43.0556C11.9167 42.9825 11.8422 42.9038 11.7677 42.8308C11.4353 42.5047 11.1028 42.1787 10.7704 41.8526C9.99661 41.0937 9.2171 40.3292 8.44331 39.5703C8.34014 39.4691 8.2427 39.3735 8.13953 39.2723C8.1166 39.2499 8.09367 39.2274 8.07075 39.2049C8.03063 39.1655 7.99623 39.1262 7.96184 39.0812C7.83001 38.9351 8.19111 39.4297 8.05928 39.1936C7.99623 39.0756 7.92745 38.9688 7.87587 38.8451C7.93319 38.98 7.9905 39.1149 8.04782 39.2499C7.96758 39.0587 7.91599 38.862 7.88733 38.654C7.91026 38.8058 7.92745 38.9519 7.95038 39.1037C7.93319 38.9238 7.93319 38.7495 7.95038 38.5697C7.92745 38.7214 7.91026 38.8676 7.88733 39.0194C7.91599 38.8114 7.96758 38.6146 8.04782 38.4235C7.9905 38.5584 7.93319 38.6933 7.87587 38.8282C7.92745 38.7046 7.99623 38.5978 8.05928 38.4797C8.12233 38.3617 8.2427 38.3392 7.93319 38.6259C7.97331 38.5921 8.0077 38.5415 8.04209 38.5022C8.13953 38.401 8.23697 38.3054 8.34014 38.2099C8.68978 37.8613 9.01648 37.4735 9.27441 37.0575C9.80746 36.1917 10.0941 35.1237 10.0425 34.1118C9.94503 32.133 8.78148 30.1767 6.9072 29.3447C6.21366 29.0356 5.57171 28.8725 4.80939 28.8051C4.44256 28.7714 4.07572 28.8107 3.70889 28.7714C3.86365 28.7938 4.01268 28.8107 4.16743 28.8332C3.96109 28.7995 3.76621 28.7489 3.57706 28.6702C3.71463 28.7264 3.85219 28.7826 3.98975 28.8388C3.87511 28.7882 3.76048 28.732 3.65731 28.6645C3.49109 28.5577 3.51401 28.4678 3.76621 28.7545C3.72609 28.7095 3.6745 28.6702 3.62865 28.6308C3.61145 28.614 3.49682 28.5015 3.50255 28.4959C3.50828 28.4847 3.77767 28.9006 3.61145 28.6308C3.53694 28.5128 3.46816 28.4003 3.41084 28.2767C3.46816 28.4116 3.52548 28.5465 3.5828 28.6814C3.50255 28.4903 3.45097 28.3048 3.41657 28.1024C3.4395 28.2542 3.4567 28.4003 3.47962 28.5521C3.39365 27.8663 3.4567 27.1411 3.4567 26.4553C3.4567 25.4378 3.4567 24.4147 3.4567 23.3972C3.4567 23.0992 3.4395 22.7901 3.47962 22.4921C3.4567 22.6439 3.4395 22.7901 3.41657 22.9418C3.45097 22.7395 3.50255 22.5483 3.5828 22.3628C3.52548 22.4977 3.46816 22.6327 3.41084 22.7676C3.46243 22.6551 3.51975 22.5427 3.58853 22.4415C3.69743 22.2785 3.78914 22.301 3.49682 22.5483C3.54267 22.509 3.5828 22.4584 3.62292 22.4134C3.64011 22.3966 3.75475 22.2841 3.76048 22.2897C3.77194 22.2954 3.34779 22.5596 3.62292 22.3966C3.74328 22.3235 3.85792 22.256 3.98402 22.1998C3.84646 22.256 3.70889 22.3122 3.57133 22.3685C3.76621 22.2897 3.95536 22.2392 4.1617 22.2054C4.00694 22.2279 3.85792 22.2448 3.70316 22.2673C4.00694 22.2335 4.31646 22.256 4.62597 22.2392C5.17049 22.2167 5.73793 22.138 6.24805 21.9581C7.37721 21.559 8.26563 20.89 8.98209 19.9568C10.2373 18.3153 10.3291 16.078 9.42917 14.2679C9.17697 13.7563 8.79868 13.2897 8.39172 12.885C8.29428 12.7894 8.19685 12.6994 8.10514 12.6039C8.07648 12.5702 8.04209 12.542 8.01343 12.5083C7.80709 12.2778 8.06501 12.6207 8.10514 12.6264C8.02489 12.6039 7.90453 12.2722 7.87587 12.2104C7.93319 12.3453 7.9905 12.4802 8.04782 12.6151C7.96758 12.424 7.91599 12.2272 7.88733 12.0192C7.91026 12.171 7.92745 12.3172 7.95038 12.469C7.93319 12.2891 7.93319 12.1148 7.95038 11.9349C7.92745 12.0867 7.91026 12.2329 7.88733 12.3846C7.91599 12.1766 7.96758 11.9799 8.04782 11.7888C7.9905 11.9237 7.93319 12.0586 7.87587 12.1935C7.91599 12.0979 7.96184 12.0024 8.01916 11.9124C8.03062 11.89 8.11087 11.7944 8.10514 11.7775C8.10514 11.8 7.80709 12.1092 7.98477 11.9293C8.03063 11.8843 8.07075 11.8337 8.1166 11.7888C8.19111 11.7101 8.27136 11.637 8.34587 11.5639C8.67831 11.2379 9.01075 10.9118 9.34319 10.5858C10.117 9.82686 10.8965 9.06233 11.6703 8.30342C11.7734 8.20224 11.8709 8.10667 11.9741 8.00548C11.997 7.983 12.0199 7.96051 12.0428 7.93803C12.083 7.89868 12.1231 7.86495 12.1689 7.83122C12.318 7.70192 11.8136 8.05608 12.0543 7.92678C12.1747 7.86495 12.2836 7.79749 12.4097 7.7469C12.2721 7.80311 12.1346 7.85933 11.997 7.91554C12.1919 7.83684 12.3925 7.78625 12.6046 7.75814C12.4498 7.78062 12.3008 7.79749 12.146 7.81997C12.3294 7.80311 12.5071 7.80311 12.6905 7.81997C12.5358 7.79749 12.3867 7.78062 12.232 7.75814C12.4441 7.78625 12.6447 7.83684 12.8396 7.91554C12.702 7.85933 12.5644 7.80311 12.4269 7.7469C12.553 7.79749 12.6619 7.86495 12.7822 7.92678C12.9026 7.98862 12.9255 8.10667 12.6332 7.80311C12.6676 7.84246 12.7192 7.87619 12.7593 7.90992C12.8625 8.00548 12.9599 8.10105 13.0574 8.20224C13.4127 8.54515 13.8082 8.86558 14.2324 9.11854C15.1151 9.64135 16.2041 9.92242 17.2358 9.87183C19.2534 9.77626 21.248 8.63509 22.0963 6.79686C22.4116 6.11666 22.5778 5.48705 22.6466 4.73939C22.6809 4.37961 22.6408 4.01983 22.6809 3.66005C22.658 3.81184 22.6408 3.95799 22.6179 4.10978C22.6523 3.9074 22.7039 3.71627 22.7841 3.53076C22.7268 3.66568 22.6695 3.80059 22.6122 3.93551C22.6638 3.82308 22.7211 3.71065 22.7899 3.60946C22.8988 3.44644 22.9905 3.46892 22.6981 3.71627C22.744 3.67692 22.7841 3.62633 22.8242 3.58135C22.8414 3.56449 22.9561 3.45206 22.9618 3.45768C22.9733 3.4633 22.5491 3.72751 22.8242 3.56449C22.9446 3.49141 23.0592 3.42395 23.1853 3.36774C23.0478 3.42395 22.9102 3.48017 22.7727 3.53638C22.9675 3.45768 23.1567 3.40709 23.363 3.37336C23.2083 3.39584 23.0592 3.41271 22.9045 3.43519C23.6038 3.35087 24.3432 3.41271 25.0424 3.41271C26.0799 3.41271 27.123 3.41271 28.1605 3.41271C28.4643 3.41271 28.7795 3.39584 29.0833 3.43519C28.9285 3.41271 28.7795 3.39584 28.6248 3.37336C28.8311 3.40709 29.026 3.45768 29.2151 3.53638C29.0776 3.48017 28.94 3.42395 28.8024 3.36774C28.9171 3.41833 29.0317 3.47455 29.1349 3.542C29.3011 3.64881 29.2782 3.73876 29.026 3.45206C29.0661 3.49703 29.1177 3.53638 29.1635 3.57573C29.1807 3.5926 29.2954 3.70503 29.2896 3.71065C29.2839 3.72189 29.0145 3.3059 29.1807 3.57573C29.2553 3.69378 29.324 3.80621 29.3814 3.92989C29.324 3.79497 29.2667 3.66005 29.2094 3.52514C29.2896 3.71627 29.3412 3.90178 29.3756 4.10415C29.3527 3.95237 29.3355 3.80621 29.3126 3.65443C29.347 3.95237 29.324 4.25593 29.3412 4.5595C29.3642 5.09354 29.4444 5.65007 29.6278 6.15038C30.0348 7.25782 30.7168 8.12916 31.6683 8.83185C33.342 10.063 35.6232 10.1529 37.4688 9.27032C37.9904 9.02298 38.4662 8.65196 38.8788 8.25283C38.9763 8.15727 39.068 8.0617 39.1654 7.97176C39.1998 7.94365 39.2285 7.90992 39.2629 7.88181C39.4979 7.67944 39.1482 7.93241 39.1425 7.97176C39.1654 7.89305 39.5036 7.775 39.5667 7.7469C39.4291 7.80311 39.2915 7.85933 39.154 7.91554C39.3488 7.83684 39.5495 7.78625 39.7615 7.75814C39.6068 7.78062 39.4577 7.79749 39.303 7.81997C39.4864 7.80311 39.6641 7.80311 39.8475 7.81997C39.6927 7.79749 39.5437 7.78062 39.389 7.75814C39.601 7.78625 39.8017 7.83684 39.9965 7.91554C39.859 7.85933 39.7214 7.80311 39.5838 7.7469C39.6813 7.78625 39.7787 7.83122 39.8704 7.88743C39.8934 7.89868 39.9908 7.97738 40.008 7.97176C39.9851 7.97176 39.6698 7.67944 39.8532 7.8537C39.8991 7.89868 39.9507 7.93803 39.9965 7.983C40.0768 8.05608 40.1513 8.13478 40.2258 8.20786C40.5582 8.53391 40.8907 8.85995 41.2231 9.186C41.9969 9.94491 42.7764 10.7094 43.5502 11.4683C43.6534 11.5695 43.7508 11.6651 43.854 11.7663C43.8769 11.7888 43.8998 11.8112 43.9228 11.8337C43.9629 11.8731 43.9973 11.9124 44.0317 11.9574C44.1635 12.1036 43.8024 11.6089 43.9342 11.845C43.9973 11.963 44.0661 12.0698 44.1177 12.1935C44.0603 12.0586 44.003 11.9237 43.9457 11.7888C44.0259 11.9799 44.0775 12.1766 44.1062 12.3846C44.0833 12.2329 44.0661 12.0867 44.0431 11.9349C44.0603 12.1148 44.0603 12.2891 44.0431 12.469C44.0661 12.3172 44.0833 12.171 44.1062 12.0192C44.0775 12.2272 44.0259 12.424 43.9457 12.6151C44.003 12.4802 44.0603 12.3453 44.1177 12.2104C44.0661 12.334 43.9973 12.4409 43.9342 12.5589C43.8712 12.677 43.7508 12.6994 44.0603 12.4128C44.0202 12.4465 43.9858 12.4971 43.9514 12.5364C43.854 12.6376 43.7566 12.7332 43.6534 12.8287C43.3037 13.1773 42.977 13.5652 42.7191 13.9812C42.1861 14.8469 41.8995 15.915 41.9511 16.9268C42.0485 18.9056 43.212 20.8619 45.0863 21.6939C45.7799 22.0031 46.4218 22.1661 47.1841 22.2335C47.551 22.2673 47.9178 22.2279 48.2846 22.2673C48.1299 22.2448 47.9808 22.2279 47.8261 22.2054C48.0324 22.2392 48.2273 22.2897 48.4165 22.3685C48.2789 22.3122 48.1413 22.256 48.0038 22.1998C48.1184 22.2504 48.233 22.3066 48.3362 22.3741C48.5024 22.4809 48.4795 22.5708 48.2273 22.2841C48.2674 22.3291 48.319 22.3685 48.3649 22.4078C48.3821 22.4247 48.4967 22.5371 48.491 22.5427C48.4852 22.554 48.2158 22.138 48.3821 22.4078C48.4566 22.5259 48.5254 22.6383 48.5827 22.762C48.5254 22.627 48.468 22.4921 48.4107 22.3572C48.491 22.5483 48.5426 22.7338 48.5769 22.9362C48.554 22.7844 48.5368 22.6383 48.5139 22.4865C48.5999 23.1723 48.5368 23.8975 48.5368 24.5833C48.5368 25.6008 48.5368 26.6239 48.5368 27.6414C48.5368 27.9394 48.554 28.2486 48.5139 28.5465C48.5368 28.3947 48.554 28.2486 48.5769 28.0968C48.5426 28.2991 48.491 28.4903 48.4107 28.6758C48.468 28.5409 48.5254 28.406 48.5827 28.271C48.5311 28.3835 48.4738 28.4959 48.405 28.5971C48.2961 28.7601 48.2044 28.7376 48.4967 28.4903C48.4508 28.5296 48.4107 28.5802 48.3706 28.6252C48.3534 28.6421 48.2388 28.7545 48.233 28.7489C48.2216 28.7432 48.6457 28.479 48.3706 28.6421C48.2502 28.7151 48.1356 28.7826 48.0095 28.8388C48.1471 28.7826 48.2846 28.7264 48.4222 28.6702C48.2273 28.7489 48.0382 28.7995 47.8318 28.8332C47.9866 28.8107 48.1356 28.7938 48.2904 28.7714C48.1815 28.777 48.0726 28.7826 47.9694 28.7882C47.0695 28.8051 46.2097 29.5527 46.2499 30.4747C46.29 31.3741 47.0065 32.178 47.9694 32.1611C50.1704 32.1218 51.9472 30.3904 51.9816 28.2261C51.9873 27.6808 51.9816 27.1411 51.9816 26.5958C51.9816 25.6627 51.9816 24.7239 51.9816 23.7907C51.9816 23.0093 52.0389 22.1886 51.7351 21.4521C51.2537 20.2885 50.3652 19.4059 49.1272 19.0237C48.4222 18.8044 47.7057 18.9112 46.9835 18.8213C47.1383 18.8438 47.2873 18.8606 47.4421 18.8831C47.1096 18.8325 46.7886 18.7482 46.4791 18.6245C46.6167 18.6807 46.7543 18.737 46.8918 18.7932C46.6683 18.6976 46.4505 18.5852 46.2499 18.4503C46.1868 18.4053 45.9805 18.2535 46.2441 18.4559C46.5021 18.6526 46.3301 18.5233 46.2728 18.4727C46.1753 18.394 46.0894 18.3097 46.0034 18.2198C45.9232 18.1411 45.8544 18.0567 45.7799 17.9668C45.6538 17.8263 46.055 18.3378 45.9174 18.1411C45.883 18.0905 45.8486 18.0399 45.8142 17.9893C45.6767 17.7869 45.5678 17.5733 45.4703 17.3484C45.5277 17.4834 45.585 17.6183 45.6423 17.7532C45.5105 17.4328 45.4188 17.1067 45.3729 16.7638C45.3958 16.9156 45.413 17.0617 45.436 17.2135C45.3958 16.8875 45.3958 16.567 45.436 16.241C45.413 16.3928 45.3958 16.5389 45.3729 16.6907C45.4188 16.3591 45.5105 16.0386 45.6423 15.7294C45.585 15.8644 45.5277 15.9993 45.4703 16.1342C45.5391 15.988 45.6079 15.8419 45.6939 15.7013C45.734 15.6339 45.7741 15.572 45.82 15.5046C45.8429 15.4652 45.8716 15.4315 45.9002 15.3922C46.0492 15.1842 45.648 15.6845 45.7799 15.5439C45.9633 15.3584 46.1352 15.1673 46.3244 14.9874C47.1096 14.206 47.614 13.0705 47.5108 11.9518C47.4134 10.9568 47.0351 10.0798 46.3129 9.36589C46.1008 9.15789 45.8888 8.9499 45.671 8.73628C44.8972 7.97738 44.1234 7.21847 43.3496 6.45957C42.5701 5.69504 41.8708 4.94176 40.7818 4.58198C39.4234 4.13226 37.9388 4.54825 36.8785 5.44207C36.6664 5.62196 36.483 5.83558 36.2709 6.01547C36.2422 6.03795 36.2193 6.06044 36.1907 6.08293C35.9843 6.26844 36.4887 5.87493 36.3454 5.96487C36.2594 6.02109 36.1792 6.08293 36.0932 6.13352C35.927 6.23471 35.7493 6.32465 35.5659 6.40335C35.7035 6.34714 35.841 6.29092 35.9786 6.23471C35.6633 6.364 35.3366 6.44832 34.9985 6.49892C35.1532 6.47643 35.3022 6.45957 35.457 6.43708C35.1246 6.47643 34.7978 6.47643 34.4654 6.43708C34.6202 6.45957 34.7692 6.47643 34.9239 6.49892C34.5743 6.45395 34.2419 6.364 33.9152 6.23471C34.0527 6.29092 34.1903 6.34714 34.3278 6.40335C34.11 6.31341 33.898 6.2066 33.7031 6.08293C33.6515 6.0492 33.5999 6.01547 33.5483 5.98174C33.3248 5.8412 33.7031 6.09417 33.726 6.11666C33.6458 6.02671 33.5369 5.95925 33.4452 5.87493C33.3649 5.79623 33.2847 5.71753 33.2102 5.63321C33.1758 5.59386 33.1471 5.5545 33.1127 5.51515C33.4853 5.93677 33.3133 5.77374 33.2331 5.66131C33.0898 5.45332 32.9637 5.23408 32.8662 5.0036C32.9236 5.13851 32.9809 5.27343 33.0382 5.40835C32.9121 5.10478 32.8204 4.78998 32.7745 4.46393C32.7975 4.61571 32.8147 4.76187 32.8376 4.91365C32.7516 4.24469 32.8376 3.58698 32.6599 2.92364C32.3905 1.91176 31.6511 0.96735 30.6997 0.489521C29.731 0.000449742 28.7623 0.0116928 27.7191 0.0116928C26.6932 0.0116928 25.6672 0.0116928 24.6469 0.0116928C23.8388 0.0116928 22.9503 -0.061387 22.1651 0.157852C20.8869 0.512007 19.9412 1.44518 19.4654 2.64256C19.1674 3.3846 19.2935 4.15475 19.1903 4.91927C19.2132 4.76749 19.2304 4.62133 19.2534 4.46955C19.2018 4.7956 19.1158 5.11041 18.9897 5.41397C19.047 5.27905 19.1043 5.14413 19.1617 5.00922C19.0642 5.22846 18.9496 5.44207 18.812 5.63883C18.7662 5.70066 18.6114 5.90304 18.8178 5.64445C19.0184 5.39148 18.8865 5.56013 18.835 5.61634C18.7547 5.71191 18.6687 5.79623 18.577 5.88055C18.4968 5.95925 18.4108 6.02671 18.3191 6.09979C18.1758 6.22346 18.6974 5.82996 18.4968 5.96487C18.4452 5.9986 18.3936 6.03233 18.342 6.06606C18.1357 6.20098 17.9179 6.30779 17.6886 6.40335C17.8262 6.34714 17.9637 6.29092 18.1013 6.23471C17.7746 6.364 17.4421 6.45395 17.0925 6.49892C17.2473 6.47643 17.3963 6.45957 17.551 6.43708C17.2186 6.47643 16.8919 6.47643 16.5595 6.43708C16.7142 6.45957 16.8632 6.47643 17.018 6.49892C16.6798 6.45395 16.3531 6.364 16.0379 6.23471C16.1754 6.29092 16.313 6.34714 16.4505 6.40335C16.3015 6.33589 16.1525 6.26844 16.0092 6.18411C15.9404 6.14476 15.8774 6.10541 15.8086 6.06044C15.7685 6.03795 15.7341 6.00985 15.694 5.98174C15.4819 5.83558 15.992 6.22909 15.8487 6.09979C15.6596 5.9199 15.4647 5.75126 15.2813 5.56575C14.4846 4.7956 13.3268 4.30091 12.1861 4.40209C11.1716 4.49766 10.2775 4.86868 9.54954 5.57699C9.33746 5.78499 9.12539 5.99298 8.90758 6.2066C8.1338 6.9655 7.36001 7.72441 6.58623 8.48331C5.80671 9.24784 5.03866 9.93366 4.67183 11.0018C4.21329 12.334 4.63744 13.79 5.54878 14.83C5.7322 15.038 5.95 15.2179 6.13342 15.4259C6.15635 15.454 6.17927 15.4765 6.2022 15.5046C6.39135 15.707 5.99013 15.2123 6.08183 15.3528C6.13915 15.4371 6.2022 15.5158 6.25379 15.6001C6.35696 15.7632 6.44866 15.9374 6.52891 16.1173C6.47159 15.9824 6.41427 15.8475 6.35696 15.7126C6.48879 16.0218 6.57476 16.3422 6.62635 16.6739C6.60342 16.5221 6.58623 16.3759 6.5633 16.2241C6.60342 16.5502 6.60342 16.8706 6.5633 17.1967C6.58623 17.0449 6.60342 16.8987 6.62635 16.7469C6.58049 17.0898 6.48879 17.4159 6.35696 17.7363C6.41427 17.6014 6.47159 17.4665 6.52891 17.3316C6.4372 17.5452 6.3283 17.7532 6.2022 17.9443C6.16781 17.9949 6.13342 18.0455 6.09903 18.0961C5.95573 18.3153 6.21366 17.9443 6.23659 17.9218C6.14488 18.0005 6.0761 18.1073 5.99013 18.1973C5.90988 18.276 5.82964 18.3547 5.74366 18.4278C5.70354 18.4615 5.66342 18.4896 5.62329 18.5233C6.05317 18.1579 5.88695 18.3266 5.77232 18.4053C5.56025 18.5458 5.33671 18.6695 5.10171 18.7651C5.23927 18.7088 5.37683 18.6526 5.51439 18.5964C5.20488 18.7201 4.8839 18.81 4.55146 18.855C4.70622 18.8325 4.85524 18.8157 5.01 18.7932C4.32792 18.8775 3.65731 18.7932 2.98096 18.9674C1.94925 19.2316 0.986318 19.9568 0.49912 20.89C0.000458561 21.84 0.011922 22.7901 0.011922 23.8132C0.011922 24.8194 0.011922 25.8257 0.011922 26.8263C0.011922 27.6189 -0.0625906 28.4903 0.160947 29.2604C0.522047 30.514 1.47352 31.4416 2.69438 31.9082C3.45097 32.2005 4.23621 32.0768 5.01573 32.178C4.86097 32.1555 4.71195 32.1386 4.55719 32.1162C4.88963 32.1667 5.21061 32.2511 5.52012 32.3747C5.38256 32.3185 5.245 32.2623 5.10744 32.2061C5.33098 32.3017 5.54878 32.4141 5.74939 32.549C5.81244 32.594 6.01878 32.7458 5.75512 32.5434C5.4972 32.3466 5.66915 32.4759 5.72647 32.5265C5.8239 32.6052 5.90988 32.6895 5.99586 32.7795C6.0761 32.8582 6.14488 32.9425 6.2194 33.0325C6.34549 33.173 5.94427 32.6614 6.08183 32.8582C6.11622 32.9088 6.15061 32.9594 6.185 33.01C6.32257 33.2123 6.43147 33.426 6.52891 33.6508C6.47159 33.5159 6.41427 33.381 6.35696 33.2461C6.48879 33.5665 6.58049 33.8926 6.62635 34.2355C6.60342 34.0837 6.58623 33.9375 6.5633 33.7857C6.60342 34.1118 6.60342 34.4322 6.5633 34.7583C6.58623 34.6065 6.60342 34.4603 6.62635 34.3085C6.58049 34.6402 6.48879 34.9606 6.35696 35.2698C6.41427 35.1349 6.47159 35 6.52891 34.8651C6.46013 35.0112 6.39135 35.1574 6.30537 35.2979C6.26525 35.3654 6.22513 35.4272 6.17927 35.4947C6.15635 35.534 6.12769 35.5678 6.09903 35.6071C5.95 35.8151 6.35123 35.3148 6.2194 35.4553C6.03598 35.6408 5.86403 35.832 5.67488 36.0119C4.88963 36.7933 4.38524 37.9288 4.48841 39.0475C4.58585 40.0425 4.96414 40.9194 5.68634 41.6334C5.89842 41.8414 6.11049 42.0494 6.3283 42.263C7.10208 43.0219 7.87587 43.7808 8.64965 44.5397C9.42917 45.3042 10.1284 46.0575 11.2175 46.4173C12.5759 46.867 14.0604 46.451 15.1208 45.5572C15.3329 45.3773 15.5163 45.1637 15.7284 44.9838C15.757 44.9613 15.7799 44.9388 15.8086 44.9163C16.0149 44.7308 15.5105 45.1243 15.6538 45.0344C15.7398 44.9782 15.8201 44.9163 15.906 44.8657C16.0723 44.7646 16.2499 44.6746 16.4334 44.5959C16.2958 44.6521 16.1582 44.7083 16.0207 44.7646C16.3359 44.6353 16.6626 44.5509 17.0008 44.5003C16.846 44.5228 16.697 44.5397 16.5423 44.5622C16.8747 44.5228 17.2014 44.5228 17.5338 44.5622C17.3791 44.5397 17.2301 44.5228 17.0753 44.5003C17.4249 44.5453 17.7574 44.6353 18.0841 44.7646C17.9465 44.7083 17.809 44.6521 17.6714 44.5959C17.8892 44.6859 18.1013 44.7927 18.2962 44.9163C18.3478 44.9501 18.3993 44.9838 18.4509 45.0175C18.6745 45.1581 18.2962 44.9051 18.2732 44.8826C18.3535 44.9726 18.4624 45.04 18.5541 45.1243C18.6343 45.203 18.7146 45.2817 18.7891 45.3661C18.8235 45.4054 18.8521 45.4448 18.8865 45.4841C18.514 45.0625 18.6859 45.2255 18.7662 45.338C18.9095 45.5459 19.0356 45.7652 19.133 45.9957C19.0757 45.8608 19.0184 45.7258 18.9611 45.5909C19.0871 45.8945 19.1789 46.2093 19.2247 46.5353C19.2018 46.3836 19.1846 46.2374 19.1617 46.0856C19.2476 46.7546 19.1617 47.4123 19.3393 48.0756C19.6087 49.0875 20.3481 50.0319 21.2996 50.5097C22.2683 50.9988 23.2369 50.9876 24.2801 50.9876C25.3061 50.9876 26.3321 50.9876 27.3523 50.9876C28.1605 50.9876 29.0489 51.0607 29.8342 50.8414C31.1123 50.4873 32.0581 49.5541 32.5338 48.3567C32.8319 47.6147 32.7058 46.8445 32.8089 46.08C32.786 46.2318 32.7688 46.3779 32.7459 46.5297C32.7975 46.2037 32.8834 45.8889 33.0095 45.5853C32.9522 45.7202 32.8949 45.8551 32.8376 45.99C32.935 45.7708 33.0497 45.5572 33.1872 45.3604C33.2331 45.2986 33.3878 45.0962 33.1815 45.3548C32.9809 45.6078 33.1127 45.4391 33.1643 45.3829C33.2445 45.2874 33.3305 45.203 33.4222 45.1187C33.5025 45.04 33.5884 44.9726 33.6802 44.8995C33.8235 44.7758 33.3019 45.1693 33.5025 45.0344C33.5541 45.0007 33.6056 44.9669 33.6572 44.9332C33.8636 44.7983 34.0814 44.6915 34.3106 44.5959C34.1731 44.6521 34.0355 44.7083 33.898 44.7646C34.2247 44.6353 34.5571 44.5453 34.9067 44.5003C34.752 44.5228 34.603 44.5397 34.4482 44.5622C34.7806 44.5228 35.1074 44.5228 35.4398 44.5622C35.285 44.5397 35.136 44.5228 34.9813 44.5003C35.3194 44.5453 35.6461 44.6353 35.9614 44.7646C35.8238 44.7083 35.6863 44.6521 35.5487 44.5959C35.6977 44.6634 35.8468 44.7308 35.99 44.8152C36.0588 44.8545 36.1219 44.8939 36.1907 44.9388C36.2308 44.9613 36.2652 44.9894 36.3053 45.0175C36.5174 45.1637 36.0072 44.7702 36.1505 44.8995C36.3397 45.0794 36.5346 45.248 36.718 45.4335C37.5147 46.2037 38.6725 46.6984 39.8131 46.5972C40.8276 46.5016 41.7218 46.1306 42.4497 45.4223C42.6618 45.2143 42.8739 45.0063 43.0917 44.7927C43.8655 44.0338 44.6392 43.2749 45.413 42.516C46.1925 41.7514 46.9606 41.0656 47.3274 39.9975C47.786 38.6652 47.3618 37.2092 46.4505 36.1693C46.2671 35.9613 46.0492 35.7814 45.8658 35.5734C45.8429 35.5453 45.82 35.5228 45.7971 35.4947C45.6079 35.2923 46.0091 35.787 45.9174 35.6465C45.8601 35.5621 45.7971 35.4834 45.7455 35.3991C45.6423 35.2361 45.5506 35.0618 45.4703 34.8819C45.5277 35.0169 45.585 35.1518 45.6423 35.2867C45.5105 34.9775 45.4245 34.6571 45.3729 34.3254C45.3958 34.4772 45.413 34.6233 45.436 34.7751C45.3958 34.4491 45.3958 34.1287 45.436 33.8026C45.413 33.9544 45.3958 34.1005 45.3729 34.2523C45.4188 33.9094 45.5105 33.5834 45.6423 33.2629C45.585 33.3979 45.5277 33.5328 45.4703 33.6677C45.562 33.4541 45.671 33.2461 45.7971 33.0549C45.8314 33.0044 45.8658 32.9538 45.9002 32.9032C46.0435 32.6839 45.7856 33.0549 45.7627 33.0774C45.8544 32.9987 45.9231 32.8919 46.0091 32.802C46.0894 32.7233 46.1696 32.6446 46.2556 32.5715C46.2957 32.5378 46.3358 32.5097 46.376 32.4759C45.9461 32.8413 46.1123 32.6727 46.2269 32.594C46.439 32.4534 46.6625 32.3298 46.8975 32.2342C46.76 32.2904 46.6224 32.3466 46.4849 32.4029C46.7944 32.2792 47.1153 32.1892 47.4478 32.1443C47.293 32.1667 47.144 32.1836 46.9893 32.2061C47.316 32.1667 47.6484 32.1667 47.9808 32.1667C48.8807 32.1667 49.7405 31.391 49.7004 30.4803C49.6431 29.5584 48.9323 28.7882 47.9694 28.7882Z" fill="#7F3A65"/>
<path d="M33.8983 25.5052C33.8983 25.9212 33.8696 26.3372 33.818 26.7476C33.8409 26.5958 33.8581 26.4496 33.8811 26.2978C33.7664 27.1242 33.5486 27.9281 33.2219 28.6982C33.2792 28.5633 33.3366 28.4284 33.3939 28.2935C33.1531 28.85 32.8666 29.3841 32.5226 29.89C32.4309 30.0249 32.3392 30.1542 32.2418 30.2835C32.0756 30.5084 32.5169 29.9462 32.3278 30.1767C32.2819 30.2329 32.2361 30.2891 32.1845 30.3453C31.9953 30.5702 31.789 30.7894 31.5826 30.9974C31.3763 31.2054 31.147 31.4022 30.9178 31.5877C30.8604 31.6327 30.8031 31.6776 30.7458 31.7282C30.5108 31.9194 31.1069 31.4696 30.8547 31.6439C30.7343 31.7282 30.614 31.8182 30.4879 31.8969C29.9663 32.2398 29.4103 32.5321 28.8314 32.7738C28.969 32.7176 29.1065 32.6614 29.2441 32.6052C28.4588 32.9256 27.6392 33.1392 26.7966 33.2517C26.9514 33.2292 27.1004 33.2123 27.2552 33.1898C26.4126 33.2966 25.5586 33.2966 24.716 33.1898C24.8708 33.2123 25.0198 33.2292 25.1746 33.2517C24.332 33.1392 23.5124 32.9256 22.7271 32.6052C22.8647 32.6614 23.0022 32.7176 23.1398 32.7738C22.5723 32.5377 22.0278 32.2566 21.512 31.9194C21.3744 31.8294 21.2426 31.7395 21.1108 31.6439C20.8815 31.4809 21.4547 31.9137 21.2197 31.7282C21.1623 31.6833 21.105 31.6383 21.0477 31.5877C20.8184 31.4022 20.5949 31.1998 20.3828 30.9974C20.1707 30.7894 19.9701 30.5702 19.781 30.3453C19.7351 30.2891 19.6893 30.2329 19.6377 30.1767C19.4428 29.9462 19.9014 30.5308 19.7237 30.2835C19.6377 30.1654 19.546 30.0474 19.4657 29.9237C19.1161 29.4122 18.8181 28.8669 18.5716 28.2991C18.6289 28.434 18.6862 28.5689 18.7435 28.7039C18.4168 27.9337 18.199 27.1298 18.0844 26.3035C18.1073 26.4552 18.1245 26.6014 18.1474 26.7532C18.0385 25.9268 18.0385 25.0892 18.1474 24.2629C18.1245 24.4146 18.1073 24.5608 18.0844 24.7126C18.199 23.8862 18.4168 23.0823 18.7435 22.3122C18.6862 22.4471 18.6289 22.582 18.5716 22.7169C18.8123 22.1604 19.0989 21.6264 19.4428 21.1204C19.5345 20.9855 19.6262 20.8562 19.7237 20.7269C19.8899 20.5021 19.4486 21.0642 19.6377 20.8337C19.6836 20.7775 19.7294 20.7213 19.781 20.6651C19.9701 20.4402 20.1765 20.221 20.3828 20.013C20.5949 19.805 20.8184 19.6082 21.0477 19.4227C21.105 19.3778 21.1623 19.3328 21.2197 19.2822C21.4547 19.0911 20.8586 19.5408 21.1108 19.3665C21.2311 19.2822 21.3515 19.1922 21.4776 19.1135C21.9992 18.7706 22.5552 18.4783 23.1341 18.2366C22.9965 18.2928 22.8589 18.349 22.7214 18.4052C23.5066 18.0848 24.3263 17.8712 25.1688 17.7588C25.0141 17.7813 24.865 17.7981 24.7103 17.8206C25.5529 17.7138 26.4069 17.7138 27.2494 17.8206C27.0947 17.7981 26.9457 17.7813 26.7909 17.7588C27.6335 17.8712 28.4531 18.0848 29.2384 18.4052C29.1008 18.349 28.9632 18.2928 28.8257 18.2366C29.3931 18.4727 29.9376 18.7538 30.4535 19.0911C30.591 19.181 30.7229 19.271 30.8547 19.3665C31.084 19.5295 30.5108 19.0967 30.7458 19.2822C30.8031 19.3272 30.8604 19.3721 30.9178 19.4227C31.147 19.6082 31.3706 19.8106 31.5826 20.013C31.7947 20.221 31.9953 20.4402 32.1845 20.6651C32.2303 20.7213 32.2762 20.7775 32.3278 20.8337C32.5226 21.0642 32.0641 20.4796 32.2418 20.7269C32.3278 20.845 32.4195 20.963 32.4997 21.0867C32.8494 21.5983 33.1474 22.1435 33.3939 22.7113C33.3366 22.5764 33.2792 22.4415 33.2219 22.3066C33.5486 23.0767 33.7664 23.8806 33.8811 24.707C33.8581 24.5552 33.8409 24.409 33.818 24.2572C33.8696 24.6732 33.8983 25.0892 33.8983 25.5052C33.904 26.3878 34.6892 27.231 35.6178 27.1917C36.5463 27.1523 37.343 26.4496 37.3373 25.5052C37.3258 23.2566 36.638 20.9743 35.2968 19.1417C33.8983 17.2303 32.0183 15.8137 29.7657 15.0042C25.4325 13.4414 20.2223 14.8243 17.2991 18.3378C15.763 20.1816 14.8574 22.3459 14.6568 24.7238C14.4677 26.978 15.058 29.3278 16.2502 31.256C17.3966 33.1111 19.1276 34.6908 21.1509 35.5846C23.4206 36.5908 25.8738 36.8832 28.3213 36.4053C32.7577 35.5452 36.4604 31.8182 37.1596 27.4278C37.2628 26.7925 37.3373 26.1517 37.3373 25.5052C37.343 24.6226 36.5463 23.7794 35.6178 23.8188C34.6835 23.8581 33.8983 24.5608 33.8983 25.5052Z" fill="#7F3A65"/>
</svg>
