<svg width="44" height="44" viewBox="0 0 44 44" fill="none" xmlns="http://www.w3.org/2000/svg">
<path d="M37.4004 4.40127H35.1997V2.20063C35.1997 0.983791 34.2159 0 32.9991 0C31.7822 0 30.7984 0.983791 30.7984 2.20063V4.40127H24.1987L24.2007 2.20063C24.2007 0.983791 23.2149 0 22.0001 0C20.7853 0 19.7994 0.983791 19.7994 2.20063V4.40127H13.1996V2.20063C13.1996 0.983791 12.2138 0 10.999 0C9.78628 0 8.80043 0.983791 8.80043 2.20063V4.40127H6.5998C2.96167 4.40127 0 7.36088 0 11.0011V37.4002C0 41.0404 2.95961 44 6.5998 44H37.3981C41.0383 44 43.9979 41.0404 43.9979 37.4002L44 11.0011C44 7.36088 41.0385 4.40127 37.4004 4.40127ZM39.5989 37.4002C39.5989 38.615 38.6131 39.6008 37.3983 39.6008L6.59995 39.5988C5.38722 39.5988 4.39931 38.6129 4.39931 37.3982V21.9979H39.5989V37.4002ZM39.5989 17.6008H4.40143V11.0011C4.40143 9.78627 5.38934 8.80042 6.60206 8.80042H8.8027V11.0011C8.8027 12.2179 9.78855 13.2017 11.0033 13.2017C12.2181 13.2017 13.204 12.2179 13.204 11.0011L13.1998 8.80042H19.7996V11.0011C19.7996 12.2179 20.7855 13.2017 22.0003 13.2017C23.2151 13.2017 24.2009 12.2179 24.2009 11.0011V8.80042H30.8007V11.0011C30.8007 12.2179 31.7845 13.2017 33.0013 13.2017C34.2182 13.2017 35.202 12.2179 35.202 11.0011L35.1999 8.80042H37.4006C38.6153 8.80042 39.6012 9.78627 39.6012 11.0011L39.5989 17.6008Z" fill="#7F3A65"/>
</svg>
